HIERARCHY
ROOT Hips
{
	OFFSET 0.000000 0.000000 0.000000
	CHANNELS 6 Xposition Yposition Zposition Yrotation Xrotation Zrotation
	JOINT Chest
	{
		OFFSET 0.000000 -0.009281 11.569106
		CHANNELS 3 Yrotation Xrotation Zrotation
		JOINT Chest2
		{
			OFFSET -0.000000 0.016865 9.269641
			CHANNELS 3 Yrotation Xrotation Zrotation
			JOINT Chest3
			{
				OFFSET -0.000000 0.000001 8.374491
				CHANNELS 3 Yrotation Xrotation Zrotation
				JOINT Chest4
				{
					OFFSET -0.000000 0.000001 8.374493
					CHANNELS 3 Yrotation Xrotation Zrotation
					JOINT Neck
					{
						OFFSET -0.000000 0.000002 12.152554
						CHANNELS 3 Yrotation Xrotation Zrotation
						JOINT Head
						{
							OFFSET -0.000000 0.040101 7.802319
							CHANNELS 3 Yrotation Xrotation Zrotation
							End Site
							{
								OFFSET -0.000000 0.020947 14.853096
							}
						}
					}
					JOINT RightCollar
					{
						OFFSET 2.894404 0.000001 6.791374
						CHANNELS 3 Yrotation Xrotation Zrotation
						JOINT RightShoulder
						{
							OFFSET 13.574684 0.000001 0.000000
							CHANNELS 3 Yrotation Xrotation Zrotation
							JOINT RightElbow
							{
								OFFSET 23.923903 0.000002 0.000000
								CHANNELS 3 Yrotation Xrotation Zrotation
								JOINT RightWrist
								{
									OFFSET 19.846718 0.012767 0.000000
									CHANNELS 3 Yrotation Xrotation Zrotation
									End Site
									{
										OFFSET 14.973145 0.000001 0.000000
									}
								}
							}
						}
					}
					JOINT LeftCollar
					{
						OFFSET -2.894404 0.000001 6.791374
						CHANNELS 3 Yrotation Xrotation Zrotation
						JOINT LeftShoulder
						{
							OFFSET -13.574684 -0.000001 0.000000
							CHANNELS 3 Yrotation Xrotation Zrotation
							JOINT LeftElbow
							{
								OFFSET -23.923903 -0.000002 0.000000
								CHANNELS 3 Yrotation Xrotation Zrotation
								JOINT LeftWrist
								{
									OFFSET -19.846718 0.012763 0.000000
									CHANNELS 3 Yrotation Xrotation Zrotation
									End Site
									{
										OFFSET -14.973145 -0.000001 0.000000
									}
								}
							}
						}
					}
				}
			}
		}
	}
	JOINT RightHip
	{
		OFFSET 9.469263 0.004643 0.045487
		CHANNELS 3 Yrotation Xrotation Zrotation
		JOINT RightKnee
		{
			OFFSET 0.000000 0.002661 -40.478676
			CHANNELS 3 Yrotation Xrotation Zrotation
			JOINT RightAnkle
			{
				OFFSET 0.000000 0.049106 -35.224068
				CHANNELS 3 Yrotation Xrotation Zrotation
				JOINT RightToe
				{
					OFFSET -0.000001 12.539529 -6.151390
					CHANNELS 3 Yrotation Xrotation Zrotation
					End Site
					{
						OFFSET -0.000001 5.044994 -1.291870
					}
				}
			}
		}
	}
	JOINT LeftHip
	{
		OFFSET -9.469263 0.004641 0.045487
		CHANNELS 3 Yrotation Xrotation Zrotation
		JOINT LeftKnee
		{
			OFFSET 0.000000 0.002661 -40.478676
			CHANNELS 3 Yrotation Xrotation Zrotation
			JOINT LeftAnkle
			{
				OFFSET 0.000000 0.049106 -35.224068
				CHANNELS 3 Yrotation Xrotation Zrotation
				JOINT LeftToe
				{
					OFFSET -0.000001 12.539529 -6.151390
					CHANNELS 3 Yrotation Xrotation Zrotation
					End Site
					{
						OFFSET -0.000001 5.044994 -1.291870
					}
				}
			}
		}
	}
}
MOTION
Frames: 13
Frame Time: 0.016667
-16.112835 -77.457764 83.509628 -2.310063 -1.443170 -126.180081 -1.560889 -3.490120 3.597627 -0.638016 -1.579558 1.471283 -0.638016 -1.579558 1.471279 -0.474681 -1.186215 1.101741 0.566229 -12.669549 -1.493266 0.454773 12.653468 -2.605985 10.674254 5.747588 -1.522513 43.654444 -16.401041 -15.862088 -28.962994 -61.912796 86.754228 -47.269154 43.241531 49.682328 -8.026420 5.265730 -6.595700 -40.904394 -7.635525 21.494537 -4.058867 -64.659277 -59.130976 30.219622 15.996293 -74.851784 -1.944548 -2.068052 0.465872 0.959186 -11.871320 -6.883289 5.880834 9.672625 7.147087 -0.864706 -0.244644 -0.103923 -0.002787 -5.364479 2.751261 1.747566 -2.150512 1.237626 3.790609 1.994438 4.232223 0.352056 -0.234765 0.117698 
-16.214794 -77.442444 83.508926 -2.281289 -1.400730 -125.993918 -1.529000 -3.510799 3.558226 -0.626921 -1.588833 1.452984 -0.626921 -1.588833 1.452983 -0.466385 -1.193124 1.088040 0.557049 -12.612325 -1.510106 0.429257 12.759387 -2.642526 10.684845 5.777208 -1.508846 43.614125 -16.344885 -15.929412 -28.988545 -61.856918 86.807483 -47.229925 43.218852 49.693714 -8.023020 5.255659 -6.597690 -40.956195 -7.585006 21.521496 -3.997229 -64.663115 -59.158857 30.249740 15.962690 -74.833595 -1.956002 -1.912453 0.596147 1.106921 -12.012733 -7.406688 5.975411 9.758996 7.219126 -0.797483 -0.232388 -0.091118 0.042576 -5.232867 2.793388 1.788181 -2.149877 1.407870 3.389361 1.953738 3.932050 0.542394 -0.222305 0.122740 
-16.321476 -77.447426 83.510536 -2.265585 -1.367496 -125.774122 -1.503961 -3.540752 3.510091 -0.617157 -1.596502 1.433183 -0.617157 -1.596502 1.433190 -0.459096 -1.198832 1.073211 0.569432 -12.568684 -1.531541 0.443087 12.840400 -2.678667 10.682921 5.814761 -1.502355 43.580562 -16.272693 -15.992622 -29.035298 -61.811142 86.882943 -47.162180 43.140144 49.699639 -8.009841 5.246808 -6.611469 -40.986183 -7.523686 21.566894 -3.942887 -64.688831 -59.215145 30.287620 15.911417 -74.789390 -1.942875 -1.824121 0.605441 1.212666 -12.071282 -7.832961 6.068644 9.827913 7.318839 -0.745014 -0.233964 -0.077306 0.101730 -5.126286 3.033321 1.842146 -2.115559 1.402406 2.864149 1.863463 3.635668 0.776447 -0.182622 0.127874 
-16.406929 -77.441811 83.408890 -2.266584 -1.280282 -125.540885 -1.563644 -3.556538 3.472391 -0.602579 -1.600160 1.420009 -0.602578 -1.600160 1.420014 -0.448189 -1.201528 1.063365 0.600602 -12.539487 -1.566234 0.487397 12.894776 -2.732033 10.687076 5.870972 -1.501914 43.550977 -16.191242 -16.059643 -29.099645 -61.787585 86.984986 -47.068295 43.058913 49.728719 -7.989733 5.245609 -6.637326 -40.990984 -7.495249 21.602638 -4.018225 -64.713727 -59.164000 30.333164 15.852804 -74.735220 -1.991861 -1.776281 0.460258 1.303359 -12.008926 -8.246351 6.172980 9.737619 7.450910 -0.711833 -0.145458 -0.038603 0.159814 -4.978146 3.412002 1.920945 -2.142685 1.437468 1.914242 1.940022 3.454200 1.240581 -0.241929 0.109669 
-16.525305 -77.435738 83.320190 -2.218051 -1.387331 -125.352522 -1.472392 -3.653656 3.515774 -0.575547 -1.593851 1.406798 -0.575547 -1.593852 1.406795 -0.427966 -1.196722 1.053528 0.634698 -12.524369 -1.613448 0.532275 12.922925 -2.807853 10.693406 5.902451 -1.487266 43.502858 -16.112228 -16.108325 -29.145848 -61.789095 87.109801 -47.011601 43.035229 49.746184 -7.981949 5.248126 -6.649399 -40.994905 -7.523712 21.606890 -4.145472 -64.727196 -59.023804 30.346783 15.788086 -74.660115 -1.884432 -1.676661 0.154781 1.476279 -12.137623 -8.807642 6.260161 9.685993 7.797207 -0.688539 -0.052640 -0.008924 0.479584 -5.002585 4.066074 2.030585 -2.187855 1.758421 0.451978 2.203845 2.911636 1.922111 -0.331305 0.170146 
-16.743366 -77.322151 83.231918 -2.000036 -1.348888 -125.073140 -1.407230 -3.536734 3.415455 -0.539497 -1.578962 1.418212 -0.539497 -1.578962 1.418212 -0.400935 -1.185482 1.062198 0.663178 -12.521801 -1.670578 0.562522 12.927558 -2.904790 10.701166 5.920511 -1.460103 43.412713 -16.092435 -16.135902 -29.114214 -61.800009 87.208115 -46.996746 43.057130 49.742543 -7.999469 5.261214 -6.649803 -41.026768 -7.570135 21.605348 -4.239527 -64.729471 -58.855849 30.320108 15.733884 -74.585420 -1.844377 -1.146073 -0.448458 1.726591 -12.503478 -9.387344 6.237749 9.686751 8.158236 -0.603489 0.001188 0.004219 0.768843 -4.731932 4.987092 2.217139 -2.412061 2.266986 -1.350361 2.573559 2.094588 2.676041 -0.394336 0.131251 
-16.996761 -77.177162 83.143173 -1.792105 -1.346890 -124.743037 -1.312871 -3.451908 3.307288 -0.506867 -1.564841 1.422095 -0.506867 -1.564842 1.422101 -0.376487 -1.174819 1.065209 0.695915 -12.517502 -1.738284 0.596411 12.935355 -3.020102 10.713909 5.989536 -1.438098 43.317470 -16.170261 -16.179648 -29.065795 -61.799278 87.289831 -46.993027 43.090700 49.739353 -8.019692 5.307304 -6.649891 -41.081877 -7.614226 21.622613 -4.286710 -64.720967 -58.711746 30.281087 15.672441 -74.515376 -1.810241 -0.576985 -1.348679 2.072450 -12.939553 -9.770423 5.903445 9.729739 8.380836 -0.383818 0.027164 0.008157 1.096163 -4.456844 5.992081 2.375249 -2.646900 2.763114 -3.195339 2.905262 1.538152 3.316743 -0.456277 0.069810 
-17.244907 -77.053856 83.059860 -1.642038 -1.370695 -124.444530 -1.224186 -3.442439 3.253848 -0.486186 -1.556874 1.425742 -0.486186 -1.556874 1.425742 -0.360986 -1.168798 1.068001 0.739279 -12.494063 -1.817979 0.645110 12.978757 -3.154051 10.714794 6.075065 -1.433117 43.252009 -16.247007 -16.213144 -29.090117 -61.795515 87.384204 -46.969452 43.118650 49.746829 -8.030657 5.350360 -6.657082 -41.123425 -7.602222 21.647204 -4.286240 -64.756518 -58.657583 30.262413 15.605983 -74.437171 -1.788466 -0.064798 -2.509323 2.544933 -13.356643 -10.038842 5.108663 9.715924 8.310073 0.004022 0.103856 0.014803 1.410786 -4.233529 6.931338 2.427662 -2.911000 3.305639 -4.520028 3.169570 1.478164 3.484699 -0.463415 0.023153 
-17.476051 -76.933701 82.989052 -1.525025 -1.372454 -124.156460 -1.174584 -3.464788 3.243393 -0.478775 -1.553096 1.428149 -0.478775 -1.553096 1.428144 -0.355431 -1.165950 1.069825 0.798738 -12.446205 -1.912696 0.717620 13.067639 -3.310207 10.699058 6.077327 -1.439722 43.227810 -16.235447 -16.187902 -29.117964 -61.781588 87.424652 -46.920589 43.116037 49.776376 -8.033002 5.376842 -6.683203 -41.130757 -7.566896 21.666330 -4.360946 -64.810518 -58.595599 30.246072 15.549863 -74.342873 -1.793523 0.523253 -3.734218 3.223487 -13.908296 -10.965718 3.923950 9.553703 8.223396 0.505989 0.342097 0.020093 1.741995 -4.016131 7.948046 2.376794 -3.285330 4.236640 -5.405093 3.477062 1.575913 3.279273 -0.466784 -0.001608 
-17.694704 -76.832260 82.932411 -1.427007 -1.344752 -123.833775 -1.140533 -3.495747 3.225044 -0.488372 -1.550669 1.422078 -0.488372 -1.550669 1.422079 -0.362650 -1.164147 1.065255 0.867533 -12.383106 -2.010400 0.806262 13.184995 -3.468356 10.669098 6.058111 -1.458271 43.243024 -16.219789 -16.134515 -29.139752 -61.762184 87.418232 -46.866251 43.076009 49.798745 -8.036302 5.431389 -6.703508 -41.110724 -7.576462 21.728611 -4.544369 -64.870350 -58.480592 30.239201 15.538062 -74.269230 -1.783482 1.210295 -5.042020 3.972088 -14.569099 -12.564543 2.711508 9.360705 7.967008 0.907128 0.577875 0.027726 2.162878 -3.902949 9.136806 2.192166 -3.580916 5.616537 -6.014855 3.724940 1.563985 2.865968 -0.477865 0.008296 
-17.873659 -76.786095 82.891991 -1.373900 -1.262695 -123.451394 -1.134310 -3.537292 3.180703 -0.522199 -1.548867 1.403153 -0.522199 -1.548867 1.403147 -0.388072 -1.162859 1.050977 0.935465 -12.316697 -2.109367 0.892554 13.308492 -3.629362 10.652840 6.093335 -1.488206 43.270642 -16.241416 -16.095488 -29.127441 -61.767511 87.362839 -46.790600 42.969198 49.816910 -8.040375 5.467388 -6.745665 -41.078284 -7.577498 21.831008 -4.793570 -64.920367 -58.313566 30.212614 15.609726 -74.260740 -1.759566 1.792603 -6.451489 4.573010 -15.066578 -14.465579 1.706489 9.165768 7.669962 1.143492 0.708190 0.039193 2.586132 -3.946909 10.421101 1.874180 -3.747424 7.077934 -6.340839 3.909753 1.599036 2.329766 -0.472979 0.010219 
-17.957682 -76.754082 82.867523 -1.329725 -1.086964 -122.993061 -1.177102 -3.541608 3.088599 -0.571055 -1.542321 1.370976 -0.571055 -1.542320 1.370977 -0.424807 -1.158029 1.026732 0.992956 -12.257237 -2.205833 0.960041 13.418900 -3.789958 10.636773 6.097585 -1.520501 43.312958 -16.225843 -16.021635 -29.065112 -61.818499 87.255189 -46.683995 42.804656 49.843794 -8.035046 5.456308 -6.780509 -41.039854 -7.566521 21.957941 -4.946923 -64.963889 -58.234179 30.195566 15.783181 -74.342415 -1.760844 2.213519 -7.806880 4.592001 -15.393132 -16.110003 1.302840 8.971021 7.853579 1.240779 0.749403 0.033441 2.857749 -4.059465 11.619119 1.694815 -3.605812 8.052547 -6.599046 3.748551 1.930177 1.812653 -0.334941 -0.008586 
-17.875902 -76.733253 82.861534 -1.317349 -0.853372 -122.404503 -1.253786 -3.549154 2.930798 -0.627862 -1.538644 1.324390 -0.627862 -1.538643 1.324388 -0.467536 -1.155352 0.991654 1.032103 -12.199163 -2.309335 0.989450 13.526204 -3.971821 10.646423 6.153738 -1.549805 43.385730 -16.222220 -15.976950 -28.962160 -61.888160 87.108524 -46.599297 42.616918 49.853383 -8.044141 5.470541 -6.828325 -40.968451 -7.584416 22.124113 -4.932602 -65.005991 -58.282127 30.175847 16.060131 -74.547348 -1.809949 2.437245 -8.899142 4.139270 -15.670604 -15.956546 1.377332 8.982675 7.058747 1.130774 0.643525 -0.002787 3.101836 -4.129508 12.412917 1.260353 -3.683677 9.062346 -6.700013 3.661114 2.479229 1.426042 -0.122274 -0.010990 
